<svg xmlns="http://www.w3.org/2000/svg" viewBox="-7 -7 394 394" fill="currentColor" color="#0f172a">
  <path d="M320.835 226.279L360.186 215.787C386.605 208.744 386.605 171.256 360.186 164.213L320.835 153.721C274.661 141.409 238.595 105.343 226.279 59.1646L215.787 19.8137C208.744 -6.60458 171.256 -6.60458 164.213 19.8137L153.721 59.1646C141.409 105.339 105.343 141.405 59.1646 153.721L19.8137 164.213C-6.60458 171.256 -6.60458 208.744 19.8137 215.787L59.1646 226.279C105.339 238.591 141.405 274.657 153.721 320.835L164.213 360.186C171.256 386.605 208.744 386.605 215.787 360.186L226.279 320.835C238.591 274.661 274.657 238.595 320.835 226.279V226.279Z"/>
</svg>

